<?xml version="1.0" encoding="UTF-8"?>
<svg id="Ebene_1" xmlns="http://www.w3.org/2000/svg" version="1.1" viewBox="0 0 512 512">
  <!-- Generator: Adobe Illustrator 29.0.0, SVG Export Plug-In . SVG Version: 2.1.0 Build 186)  -->
  <defs>
    <style>
      .st0 {
        fill-rule: evenodd;
      }
    </style>
  </defs>
  <path class="st0" d="M93.09,0C41.68,0,0,41.68,0,93.09v325.82c0,51.41,41.68,93.09,93.09,93.09h325.82c51.41,0,93.09-41.68,93.09-93.09V93.09c0-51.41-41.68-93.09-93.09-93.09H93.09ZM81.45,186.18c0-57.84,46.89-104.73,104.73-104.73h139.64c57.84,0,104.73,46.89,104.73,104.73v139.64c0,57.84-46.89,104.73-104.73,104.73h-139.64c-57.84,0-104.73-46.89-104.73-104.73v-139.64ZM186.18,104.73c-44.99,0-81.45,36.47-81.45,81.45v139.64c0,44.99,36.47,81.45,81.45,81.45h139.64c44.99,0,81.45-36.47,81.45-81.45v-139.64c0-44.99-36.47-81.45-81.45-81.45h-139.64ZM372.36,166.8c0,10.71-8.68,19.4-19.4,19.4s-19.4-8.68-19.4-19.4,8.68-19.4,19.4-19.4,19.4,8.68,19.4,19.4ZM166.8,256c0-49.27,39.94-89.2,89.2-89.2s89.2,39.94,89.2,89.2-39.94,89.2-89.2,89.2-89.2-39.94-89.2-89.2ZM256,190.07c-36.41,0-65.93,29.52-65.93,65.93s29.52,65.93,65.93,65.93,65.93-29.52,65.93-65.93-29.52-65.93-65.93-65.93h0Z"/>
</svg>